<svg xmlns="http://www.w3.org/2000/svg" width="15" height="14" viewBox="0 0 15 14">
  <metadata><?xpacket begin="﻿" id="W5M0MpCehiHzreSzNTczkc9d"?>
<x:xmpmeta xmlns:x="adobe:ns:meta/" x:xmptk="Adobe XMP Core 5.6-c138 79.159824, 2016/09/14-01:09:01        ">
   <rdf:RDF xmlns:rdf="http://www.w3.org/1999/02/22-rdf-syntax-ns#">
      <rdf:Description rdf:about=""/>
   </rdf:RDF>
</x:xmpmeta>
                                                                                                    
                                                                                                    
                                                                                                    
                                                                                                    
                                                                                                    
                                                                                                    
                                                                                                    
                                                                                                    
                                                                                                    
                                                                                                    
                                                                                                    
                                                                                                    
                                                                                                    
                                                                                                    
                                                                                                    
                                                                                                    
                                                                                                    
                                                                                                    
                                                                                                    
                                                                                                    
                           
<?xpacket end="w"?></metadata>
<defs>
    <style>
      .cls-1 {
        fill: #fff;
        fill-rule: evenodd;
      }
    </style>
  </defs>
  <path id="Forma_1" data-name="Forma 1" class="cls-1" d="M88.8,3182.69l-6.031-10.92a1.444,1.444,0,0,0-2.554,0l-6.031,10.92a1.583,1.583,0,0,0,0,1.54,1.454,1.454,0,0,0,1.277.77H87.523a1.454,1.454,0,0,0,1.277-.77A1.583,1.583,0,0,0,88.8,3182.69Zm-7.308.53a1,1,0,1,1,.96-1A0.983,0.983,0,0,1,81.492,3183.22Zm0.966-4.28a0.967,0.967,0,1,1-1.933,0v-4.64a0.473,0.473,0,0,1,.458-0.48H82a0.473,0.473,0,0,1,.458.48v4.64h0Z" transform="translate(-74 -3171)"/>
</svg>
