<svg 
 xmlns="http://www.w3.org/2000/svg"
 xmlns:xlink="http://www.w3.org/1999/xlink"
 width="28px" height="27px">
<path fill-rule="evenodd"  fill="rgb(24, 68, 103)"
 d="M13.993,26.989 C6.264,26.989 -0.002,20.947 -0.002,13.493 C-0.002,6.040 6.264,-0.003 13.993,-0.003 C21.723,-0.003 27.988,6.040 27.988,13.493 C27.988,20.947 21.723,26.989 13.993,26.989 ZM17.929,10.962 C17.929,8.806 15.742,8.519 15.747,8.519 C15.468,8.479 12.512,8.431 11.351,8.431 C11.122,8.431 10.487,8.478 10.487,9.316 C10.487,11.321 10.487,15.765 10.487,17.721 C10.487,18.193 11.003,18.554 11.351,18.554 C12.512,18.554 14.434,18.554 14.434,18.554 C13.610,18.554 18.534,18.792 18.367,15.602 C18.304,14.405 17.570,13.427 16.575,13.196 L16.575,13.140 C17.517,12.763 17.929,11.991 17.929,10.962 ZM14.431,16.868 C13.589,16.868 13.118,16.868 13.118,16.868 L13.118,14.337 C13.118,14.337 13.915,14.324 14.431,14.337 C14.298,14.334 15.742,14.265 15.742,15.602 C15.742,15.920 15.583,16.868 14.431,16.868 ZM14.122,12.582 C13.682,12.603 13.118,12.650 13.118,12.650 L13.118,10.119 C13.118,10.119 13.381,10.102 13.993,10.119 C15.356,10.157 15.288,11.029 15.288,11.412 C15.288,12.575 14.126,12.580 14.122,12.582 Z"/>
</svg>