<svg xmlns="http://www.w3.org/2000/svg" width="74" height="74" viewBox="0 0 74 74">
  <metadata><?xpacket begin="﻿" id="W5M0MpCehiHzreSzNTczkc9d"?>
<x:xmpmeta xmlns:x="adobe:ns:meta/" x:xmptk="Adobe XMP Core 5.6-c138 79.159824, 2016/09/14-01:09:01        ">
   <rdf:RDF xmlns:rdf="http://www.w3.org/1999/02/22-rdf-syntax-ns#">
      <rdf:Description rdf:about=""/>
   </rdf:RDF>
</x:xmpmeta>
                                                                                                    
                                                                                                    
                                                                                                    
                                                                                                    
                                                                                                    
                                                                                                    
                                                                                                    
                                                                                                    
                                                                                                    
                                                                                                    
                                                                                                    
                                                                                                    
                                                                                                    
                                                                                                    
                                                                                                    
                                                                                                    
                                                                                                    
                                                                                                    
                                                                                                    
                                                                                                    
                           
<?xpacket end="w"?></metadata>
<defs>
    <style>
      .cls-1, .cls-2 {
        fill: #fff;
      }

      .cls-1 {
        fill-opacity: 0;
        stroke: #fff;
        stroke-linejoin: round;
        stroke-width: 2px;
      }

      .cls-2 {
        fill-rule: evenodd;
      }
    </style>
  </defs>
  <circle id="Эллипс_629" data-name="Эллипс 629" class="cls-1" cx="37" cy="37" r="36"/>
  <path id="Forma_1" data-name="Forma 1" class="cls-2" d="M957.368,319.755l-5.89-14.267a0.788,0.788,0,0,0-1.03-.428l-19.614,8.151a0.792,0.792,0,0,0-.427,1.034l5.891,14.267a0.79,0.79,0,0,0,.729.488,0.777,0.777,0,0,0,.3-0.06l19.614-8.152A0.791,0.791,0,0,0,957.368,319.755Zm-12.293.119-11.99-5.886,16.318-6.782Zm0.11,1.815a0.788,0.788,0,0,0,1.092-.454l1.689-4.944,6.789,3.694-16.447,6.836,2.2-7.429Zm9.9-3.322-6.605-3.593,2.319-6.787Zm-22.443-2.834,6.424,3.154-2.138,7.226Zm-8.715,1.837h4.576a0.791,0.791,0,0,0,0-1.581h-4.576A0.791,0.791,0,0,0,923.931,317.37Zm7.838,7.411h-7.838a0.791,0.791,0,0,0,0,1.582h7.838A0.791,0.791,0,0,0,931.769,324.781Zm-7.838-2.915h6.207a0.791,0.791,0,0,0,0-1.581h-6.207A0.791,0.791,0,0,0,923.931,321.866Z" transform="translate(-905 -280)"/>
</svg>
