<svg 
 xmlns="http://www.w3.org/2000/svg"
 xmlns:xlink="http://www.w3.org/1999/xlink"
 width="26px" height="25px">
<path fill-rule="evenodd"  fill="rgb(255, 255, 255)"
 d="M12.853,24.303 C5.909,24.303 0.279,18.863 0.279,12.150 C0.279,5.439 5.909,-0.002 12.853,-0.002 C19.798,-0.002 25.427,5.439 25.427,12.150 C25.427,18.863 19.798,24.303 12.853,24.303 ZM16.390,9.871 C16.390,7.930 14.425,7.672 14.429,7.672 C14.178,7.635 11.523,7.592 10.479,7.592 C10.273,7.592 9.703,7.634 9.703,8.389 C9.703,10.194 9.703,14.196 9.703,15.957 C9.703,16.382 10.167,16.707 10.479,16.707 C11.523,16.707 13.250,16.707 13.250,16.707 C12.509,16.707 16.933,16.921 16.783,14.049 C16.726,12.971 16.067,12.091 15.173,11.883 L15.173,11.833 C16.019,11.493 16.390,10.798 16.390,9.871 ZM13.246,15.189 C12.490,15.189 12.067,15.189 12.067,15.189 L12.067,12.910 C12.067,12.910 12.783,12.899 13.246,12.910 C13.127,12.907 14.425,12.845 14.425,14.049 C14.425,14.335 14.282,15.189 13.246,15.189 ZM12.969,11.329 C12.574,11.348 12.067,11.391 12.067,11.391 L12.067,9.112 C12.067,9.112 12.303,9.097 12.853,9.112 C14.078,9.146 14.016,9.931 14.016,10.276 C14.016,11.323 12.973,11.329 12.969,11.329 Z"/>
</svg>